<svg data-cached="true" xmlns="http://www.w3.org/2000/svg" width="1054" height="484" viewBox="0 0 1054 484" preserveAspectRatio="xMidYMid meet"><svg id="__background" x="0" y="0" width="1054" height="484" preserveAspectRatio="xMidYMid meet"><rect x="0" y="0" width="1054" height="484" fill="#ffffff" stroke="none" stroke-width="0px"/></svg><g id="__padding" transform="translate(26 26)"><svg id="data" x="0" y="0" width="1002" height="432" viewBox="0 0 1002 432" preserveAspectRatio="xMinYMid meet"><path fill="#000000" d="M0 432 L12 432 L12 0 L0 0 Z"/><path fill="#000000" d="M18 432 L24 432 L24 0 L18 0 Z"/><path fill="#000000" d="M36 432 L54 432 L54 0 L36 0 Z"/><path fill="#000000" d="M66 432 L84 432 L84 0 L66 0 Z"/><path fill="#000000" d="M96 432 L102 432 L102 0 L96 0 Z"/><path fill="#000000" d="M108 432 L120 432 L120 0 L108 0 Z"/><path fill="#000000" d="M132 432 L144 432 L144 0 L132 0 Z"/><path fill="#000000" d="M156 432 L168 432 L168 0 L156 0 Z"/><path fill="#000000" d="M180 432 L192 432 L192 0 L180 0 Z"/><path fill="#000000" d="M198 432 L204 432 L204 0 L198 0 Z"/><path fill="#000000" d="M210 432 L234 432 L234 0 L210 0 Z"/><path fill="#000000" d="M240 432 L258 432 L258 0 L240 0 Z"/><path fill="#000000" d="M264 432 L282 432 L282 0 L264 0 Z"/><path fill="#000000" d="M288 432 L294 432 L294 0 L288 0 Z"/><path fill="#000000" d="M306 432 L318 432 L318 0 L306 0 Z"/><path fill="#000000" d="M330 432 L336 432 L336 0 L330 0 Z"/><path fill="#000000" d="M354 432 L360 432 L360 0 L354 0 Z"/><path fill="#000000" d="M366 432 L378 432 L378 0 L366 0 Z"/><path fill="#000000" d="M396 432 L408 432 L408 0 L396 0 Z"/><path fill="#000000" d="M420 432 L438 432 L438 0 L420 0 Z"/><path fill="#000000" d="M444 432 L450 432 L450 0 L444 0 Z"/><path fill="#000000" d="M462 432 L468 432 L468 0 L462 0 Z"/><path fill="#000000" d="M474 432 L492 432 L492 0 L474 0 Z"/><path fill="#000000" d="M498 432 L522 432 L522 0 L498 0 Z"/><path fill="#000000" d="M528 432 L540 432 L540 0 L528 0 Z"/><path fill="#000000" d="M552 432 L558 432 L558 0 L552 0 Z"/><path fill="#000000" d="M564 432 L570 432 L570 0 L564 0 Z"/><path fill="#000000" d="M594 432 L606 432 L606 0 L594 0 Z"/><path fill="#000000" d="M624 432 L630 432 L630 0 L624 0 Z"/><path fill="#000000" d="M642 432 L648 432 L648 0 L642 0 Z"/><path fill="#000000" d="M660 432 L666 432 L666 0 L660 0 Z"/><path fill="#000000" d="M672 432 L678 432 L678 0 L672 0 Z"/><path fill="#000000" d="M684 432 L708 432 L708 0 L684 0 Z"/><path fill="#000000" d="M726 432 L732 432 L732 0 L726 0 Z"/><path fill="#000000" d="M744 432 L750 432 L750 0 L744 0 Z"/><path fill="#000000" d="M768 432 L780 432 L780 0 L768 0 Z"/><path fill="#000000" d="M792 432 L804 432 L804 0 L792 0 Z"/><path fill="#000000" d="M816 432 L828 432 L828 0 L816 0 Z"/><path fill="#000000" d="M834 432 L846 432 L846 0 L834 0 Z"/><path fill="#000000" d="M858 432 L864 432 L864 0 L858 0 Z"/><path fill="#000000" d="M870 432 L888 432 L888 0 L870 0 Z"/><path fill="#000000" d="M900 432 L912 432 L912 0 L900 0 Z"/><path fill="#000000" d="M924 432 L936 432 L936 0 L924 0 Z"/><path fill="#000000" d="M954 432 L972 432 L972 0 L954 0 Z"/><path fill="#000000" d="M978 432 L984 432 L984 0 L978 0 Z"/><path fill="#000000" d="M990 432 L1002 432 L1002 0 L990 0 Z"/></svg></g></svg>